# xmcd
#
# Track frame offsets:
#	183
#	11220
#	23080
#	35928
#	49293
#	61765
#	74895
#	84848
#	97085
#	113483
#	128218
#	142390
#	153660
#	171473
#
# Disc length: 2520 seconds
#
# Revision: 0
# Processed by: cddbd v1.4PL0 Copyright (c) Steve Scherf et al.
# Submitted via: dBpowerAMP V4.0
#
DISCID=d209d60e
DTITLE=Philomena Begley - Reflections
DYEAR=1900
DGENRE=Country
TTITLE0=Have You Ever Benn Lonely
TTITLE1=Hillbilly Girl With The Blues
TTITLE2=Daddy And Home
TTITLE3=I'm So Afraid Of Losing You Again
TTITLE4=Too Young
TTITLE5=Little Grey Home In The West
TTITLE6=Heartaches
TTITLE7=Carolina Moon
TTITLE8=A Pal Like Mother
TTITLE9=After All These Years
TTITLE10=My Tears Will Tell My Heart
TTITLE11=When Two Worlds Collide
TTITLE12=God I Love You
TTITLE13=Breath In My Body
EXTD=
EXTT0=
EXTT1=
EXTT2=
EXTT3=
EXTT4=
EXTT5=
EXTT6=
EXTT7=
EXTT8=
EXTT9=
EXTT10=
EXTT11=
EXTT12=
EXTT13=
PLAYORDER=
